<mxfile host="www.draw.io" modified="2019-12-12T01:35:06.027Z" agent="Mozilla/5.0 (Macintosh; Intel Mac OS X 10_11_2) AppleWebKit/537.36 (KHTML, like Gecko) Chrome/79.0.3945.8 Safari/537.36" etag="Z0qI18vw78IqrBi20ZIe" version="12.2.3" type="github" pages="1">
  <diagram id="mo2l67mq2gf-snKIyfyM" name="Page-1">
    <mxGraphModel dx="1026" dy="514" grid="1" gridSize="10" guides="1" tooltips="1" connect="1" arrows="1" fold="1" page="1" pageScale="1" pageWidth="827" pageHeight="1169" math="0" shadow="0">
      <root>
        <mxCell id="0"/>
        <mxCell id="1" parent="0"/>
        <mxCell id="0tHurYUijRGF0hzQCr-z-1" value="GPO DB&lt;br&gt;dev" style="shape=cylinder;whiteSpace=wrap;html=1;boundedLbl=1;backgroundOutline=1;" vertex="1" parent="1">
          <mxGeometry x="217.5" y="660" width="70" height="50" as="geometry"/>
        </mxCell>
        <mxCell id="LToKzMWMvAvoS6rcVrgp-2" value="" style="rounded=0;whiteSpace=wrap;html=1;" vertex="1" parent="1">
          <mxGeometry x="120" y="190" width="340" height="60" as="geometry"/>
        </mxCell>
        <mxCell id="LToKzMWMvAvoS6rcVrgp-3" value="业务系统" style="text;html=1;strokeColor=none;fillColor=none;align=center;verticalAlign=middle;whiteSpace=wrap;rounded=0;" vertex="1" parent="1">
          <mxGeometry x="40" y="85" width="20" height="70" as="geometry"/>
        </mxCell>
        <mxCell id="0tHurYUijRGF0hzQCr-z-5" value="tableau creator" style="rounded=0;whiteSpace=wrap;html=1;" vertex="1" parent="1">
          <mxGeometry x="208.5" y="583" width="90" height="50" as="geometry"/>
        </mxCell>
        <mxCell id="LToKzMWMvAvoS6rcVrgp-4" value="&lt;span style=&quot;white-space: normal&quot;&gt;患者报到&lt;/span&gt;" style="rounded=0;whiteSpace=wrap;html=1;" vertex="1" parent="1">
          <mxGeometry x="150" y="200" width="60" height="20" as="geometry"/>
        </mxCell>
        <mxCell id="0tHurYUijRGF0hzQCr-z-7" value="tableau viewer" style="rounded=0;whiteSpace=wrap;html=1;" vertex="1" parent="1">
          <mxGeometry x="208.5" y="503" width="90" height="50" as="geometry"/>
        </mxCell>
        <mxCell id="LToKzMWMvAvoS6rcVrgp-5" value="业务中台" style="text;html=1;strokeColor=none;fillColor=none;align=center;verticalAlign=middle;whiteSpace=wrap;rounded=0;" vertex="1" parent="1">
          <mxGeometry x="120" y="200" width="20" height="40" as="geometry"/>
        </mxCell>
        <mxCell id="0tHurYUijRGF0hzQCr-z-9" value="GPO DB&lt;br&gt;pro" style="shape=cylinder;whiteSpace=wrap;html=1;boundedLbl=1;backgroundOutline=1;" vertex="1" parent="1">
          <mxGeometry x="442.5" y="660" width="70" height="50" as="geometry"/>
        </mxCell>
        <mxCell id="LToKzMWMvAvoS6rcVrgp-6" value="" style="rounded=0;whiteSpace=wrap;html=1;" vertex="1" parent="1">
          <mxGeometry x="120" y="83" width="170" height="60" as="geometry"/>
        </mxCell>
        <mxCell id="0tHurYUijRGF0hzQCr-z-11" value="tableau creator" style="rounded=0;whiteSpace=wrap;html=1;" vertex="1" parent="1">
          <mxGeometry x="430.5" y="583" width="90" height="50" as="geometry"/>
        </mxCell>
        <mxCell id="LToKzMWMvAvoS6rcVrgp-7" value="患者服务" style="text;html=1;strokeColor=none;fillColor=none;align=center;verticalAlign=middle;whiteSpace=wrap;rounded=0;" vertex="1" parent="1">
          <mxGeometry x="120" y="93" width="20" height="40" as="geometry"/>
        </mxCell>
        <mxCell id="0tHurYUijRGF0hzQCr-z-12" value="tableau viewer" style="rounded=0;whiteSpace=wrap;html=1;" vertex="1" parent="1">
          <mxGeometry x="430.5" y="503" width="90" height="50" as="geometry"/>
        </mxCell>
        <mxCell id="LToKzMWMvAvoS6rcVrgp-8" value="H5" style="rounded=0;whiteSpace=wrap;html=1;" vertex="1" parent="1">
          <mxGeometry x="140" y="93" width="60" height="20" as="geometry"/>
        </mxCell>
        <mxCell id="0tHurYUijRGF0hzQCr-z-14" value="" style="endArrow=none;dashed=1;html=1;" edge="1" parent="1" source="0tHurYUijRGF0hzQCr-z-15">
          <mxGeometry width="50" height="50" relative="1" as="geometry">
            <mxPoint x="192.5" y="490" as="sourcePoint"/>
            <mxPoint x="570" y="490" as="targetPoint"/>
          </mxGeometry>
        </mxCell>
        <mxCell id="LToKzMWMvAvoS6rcVrgp-10" value="康复随访" style="rounded=0;whiteSpace=wrap;html=1;" vertex="1" parent="1">
          <mxGeometry x="218.5" y="200" width="60" height="20" as="geometry"/>
        </mxCell>
        <mxCell id="0tHurYUijRGF0hzQCr-z-15" value="tableau 权限管理" style="text;html=1;strokeColor=none;fillColor=none;align=center;verticalAlign=middle;whiteSpace=wrap;rounded=0;" vertex="1" parent="1">
          <mxGeometry x="418.5" y="480" width="105" height="20" as="geometry"/>
        </mxCell>
        <mxCell id="LToKzMWMvAvoS6rcVrgp-11" value="预约挂号" style="rounded=0;whiteSpace=wrap;html=1;" vertex="1" parent="1">
          <mxGeometry x="218.5" y="230" width="60" height="20" as="geometry"/>
        </mxCell>
        <mxCell id="0tHurYUijRGF0hzQCr-z-16" value="" style="endArrow=none;dashed=1;html=1;" edge="1" parent="1" target="0tHurYUijRGF0hzQCr-z-15">
          <mxGeometry width="50" height="50" relative="1" as="geometry">
            <mxPoint x="377.5" y="490" as="sourcePoint"/>
            <mxPoint x="557.5" y="490" as="targetPoint"/>
          </mxGeometry>
        </mxCell>
        <mxCell id="LToKzMWMvAvoS6rcVrgp-12" value="康复指导" style="rounded=0;whiteSpace=wrap;html=1;" vertex="1" parent="1">
          <mxGeometry x="150" y="230" width="60" height="20" as="geometry"/>
        </mxCell>
        <mxCell id="LToKzMWMvAvoS6rcVrgp-19" value="" style="rounded=0;whiteSpace=wrap;html=1;" vertex="1" parent="1">
          <mxGeometry x="313" y="82" width="152" height="60" as="geometry"/>
        </mxCell>
        <mxCell id="LToKzMWMvAvoS6rcVrgp-21" value="病例管理" style="rounded=0;whiteSpace=wrap;html=1;" vertex="1" parent="1">
          <mxGeometry x="302" y="199" width="52" height="22" as="geometry"/>
        </mxCell>
        <mxCell id="LToKzMWMvAvoS6rcVrgp-22" value="患者沟通" style="rounded=0;whiteSpace=wrap;html=1;" vertex="1" parent="1">
          <mxGeometry x="387" y="200" width="52" height="20" as="geometry"/>
        </mxCell>
        <mxCell id="LToKzMWMvAvoS6rcVrgp-23" value="术语管理" style="rounded=0;whiteSpace=wrap;html=1;" vertex="1" parent="1">
          <mxGeometry x="383" y="230" width="60" height="20" as="geometry"/>
        </mxCell>
        <mxCell id="LToKzMWMvAvoS6rcVrgp-24" value="辅助诊疗" style="rounded=0;whiteSpace=wrap;html=1;" vertex="1" parent="1">
          <mxGeometry x="302" y="230" width="60" height="20" as="geometry"/>
        </mxCell>
        <mxCell id="LToKzMWMvAvoS6rcVrgp-25" value="患者管理" style="text;html=1;strokeColor=none;fillColor=none;align=center;verticalAlign=middle;whiteSpace=wrap;rounded=0;" vertex="1" parent="1">
          <mxGeometry x="313" y="77" width="20" height="70" as="geometry"/>
        </mxCell>
        <mxCell id="LToKzMWMvAvoS6rcVrgp-26" value="&lt;span style=&quot;color: rgba(0 , 0 , 0 , 0) ; font-family: &amp;#34;helvetica&amp;#34; , &amp;#34;arial&amp;#34; , sans-serif ; font-size: 0px&quot;&gt;%3CmxGraphModel%3E%3Croot%3E%3CmxCell%20id%3D%220%22%2F%3E%3CmxCell%20id%3D%221%22%20parent%3D%220%22%2F%3E%3CmxCell%20id%3D%222%22%20value%3D%22%22%20style%3D%22rounded%3D0%3BwhiteSpace%3Dwrap%3Bhtml%3D1%3B%22%20vertex%3D%221%22%20parent%3D%221%22%3E%3CmxGeometry%20x%3D%22280%22%20y%3D%2218%22%20width%3D%22120%22%20height%3D%2260%22%20as%3D%22geometry%22%2F%3E%3C%2FmxCell%3E%3C%2Froot%3E%3C%2FmxGraphModel%3E&lt;/span&gt;" style="text;html=1;resizable=0;points=[];autosize=1;align=left;verticalAlign=top;spacingTop=-4;" vertex="1" parent="1">
          <mxGeometry x="540.5" y="125" width="20" height="20" as="geometry"/>
        </mxCell>
        <mxCell id="LToKzMWMvAvoS6rcVrgp-27" value="" style="rounded=0;whiteSpace=wrap;html=1;" vertex="1" parent="1">
          <mxGeometry x="491" y="82" width="189" height="59" as="geometry"/>
        </mxCell>
        <mxCell id="LToKzMWMvAvoS6rcVrgp-28" value="PC" style="rounded=0;whiteSpace=wrap;html=1;" vertex="1" parent="1">
          <mxGeometry x="522" y="105" width="129" height="20" as="geometry"/>
        </mxCell>
        <mxCell id="LToKzMWMvAvoS6rcVrgp-32" value="患者运营" style="text;html=1;strokeColor=none;fillColor=none;align=center;verticalAlign=middle;whiteSpace=wrap;rounded=0;" vertex="1" parent="1">
          <mxGeometry x="492.5" y="85" width="20" height="60" as="geometry"/>
        </mxCell>
        <mxCell id="LToKzMWMvAvoS6rcVrgp-66" value="患者" style="text;html=1;strokeColor=none;fillColor=none;align=center;verticalAlign=middle;whiteSpace=wrap;rounded=0;" vertex="1" parent="1">
          <mxGeometry x="170" y="40" width="40" height="20" as="geometry"/>
        </mxCell>
        <mxCell id="LToKzMWMvAvoS6rcVrgp-67" value="医生" style="text;html=1;strokeColor=none;fillColor=none;align=center;verticalAlign=middle;whiteSpace=wrap;rounded=0;" vertex="1" parent="1">
          <mxGeometry x="360" y="40" width="40" height="20" as="geometry"/>
        </mxCell>
        <mxCell id="LToKzMWMvAvoS6rcVrgp-68" value="营运" style="text;html=1;strokeColor=none;fillColor=none;align=center;verticalAlign=middle;whiteSpace=wrap;rounded=0;" vertex="1" parent="1">
          <mxGeometry x="542" y="40" width="40" height="20" as="geometry"/>
        </mxCell>
        <mxCell id="LToKzMWMvAvoS6rcVrgp-81" value="" style="rounded=0;whiteSpace=wrap;html=1;" vertex="1" parent="1">
          <mxGeometry x="492" y="191" width="188" height="59" as="geometry"/>
        </mxCell>
        <mxCell id="LToKzMWMvAvoS6rcVrgp-82" value="营运中台" style="text;html=1;strokeColor=none;fillColor=none;align=center;verticalAlign=middle;whiteSpace=wrap;rounded=0;" vertex="1" parent="1">
          <mxGeometry x="492" y="191" width="24" height="60" as="geometry"/>
        </mxCell>
        <mxCell id="LToKzMWMvAvoS6rcVrgp-83" value="营销活动" style="rounded=0;whiteSpace=wrap;html=1;" vertex="1" parent="1">
          <mxGeometry x="514.5" y="199" width="72" height="20" as="geometry"/>
        </mxCell>
        <mxCell id="LToKzMWMvAvoS6rcVrgp-85" value="商场运营" style="rounded=0;whiteSpace=wrap;html=1;" vertex="1" parent="1">
          <mxGeometry x="516.5" y="230" width="72" height="20" as="geometry"/>
        </mxCell>
        <mxCell id="LToKzMWMvAvoS6rcVrgp-86" value="会员管理" style="rounded=0;whiteSpace=wrap;html=1;" vertex="1" parent="1">
          <mxGeometry x="598" y="199" width="72" height="20" as="geometry"/>
        </mxCell>
        <mxCell id="LToKzMWMvAvoS6rcVrgp-87" value="患者报到营运" style="rounded=0;whiteSpace=wrap;html=1;" vertex="1" parent="1">
          <mxGeometry x="598" y="230" width="82" height="20" as="geometry"/>
        </mxCell>
        <mxCell id="LToKzMWMvAvoS6rcVrgp-88" value="小程序" style="rounded=0;whiteSpace=wrap;html=1;" vertex="1" parent="1">
          <mxGeometry x="207.5" y="93" width="60" height="20" as="geometry"/>
        </mxCell>
        <mxCell id="LToKzMWMvAvoS6rcVrgp-89" value="公众号" style="rounded=0;whiteSpace=wrap;html=1;" vertex="1" parent="1">
          <mxGeometry x="140" y="120" width="60" height="20" as="geometry"/>
        </mxCell>
        <mxCell id="LToKzMWMvAvoS6rcVrgp-90" value="PC" style="rounded=0;whiteSpace=wrap;html=1;" vertex="1" parent="1">
          <mxGeometry x="207.5" y="120" width="60" height="20" as="geometry"/>
        </mxCell>
        <mxCell id="LToKzMWMvAvoS6rcVrgp-91" value="app" style="rounded=0;whiteSpace=wrap;html=1;" vertex="1" parent="1">
          <mxGeometry x="333.5" y="90" width="60" height="20" as="geometry"/>
        </mxCell>
        <mxCell id="LToKzMWMvAvoS6rcVrgp-92" value="H5" style="rounded=0;whiteSpace=wrap;html=1;" vertex="1" parent="1">
          <mxGeometry x="397" y="90" width="60" height="20" as="geometry"/>
        </mxCell>
        <mxCell id="LToKzMWMvAvoS6rcVrgp-93" value="PC" style="rounded=0;whiteSpace=wrap;html=1;" vertex="1" parent="1">
          <mxGeometry x="332.5" y="117" width="60" height="20" as="geometry"/>
        </mxCell>
      </root>
    </mxGraphModel>
  </diagram>
</mxfile>
